name rise37.2698peak67.6939fall79.5734.mot
datacolumns 19
datarows 33
range 23.69658500000000 23.74991300000000
endheader
time	ground_force1_vx	ground_force1_vy	ground_force1_vz	ground_force1_px	ground_force1_py	ground_force1_pz	ground_force2_vx	ground_force2_vy	ground_force2_vz	ground_force2_px	ground_force2_py	ground_force2_pz	ground_torque1_x	ground_torque1_y	ground_torque1_z	ground_torque2_x	ground_torque2_y	ground_torque2_z	
23.69658500000000	3.68969200000000	698.12381700000003	35.39450000000000	0.23399400000000	0.00000000000000	0.09141000000000	0.00000000000000	0.00000000000000	0.00000000000000	0.00000000000000	0.00000000000000	0.00000000000000	0.00000000000000	14.84999700000000	0.00000000000000	0.00000000000000	0.00000000000000	0.00000000000000	
23.69824500000000	3.13724600000000	699.40373599999998	35.41798800000000	0.23331300000000	0.00000000000000	0.09140300000000	0.00000000000000	0.00000000000000	0.00000000000000	0.00000000000000	0.00000000000000	0.00000000000000	0.00000000000000	14.94021900000000	0.00000000000000	0.00000000000000	0.00000000000000	0.00000000000000	
23.69990700000000	2.57816700000000	700.73995900000000	35.44351800000000	0.23260700000000	0.00000000000000	0.09139800000000	0.00000000000000	0.00000000000000	0.00000000000000	0.00000000000000	0.00000000000000	0.00000000000000	0.00000000000000	15.03244200000000	0.00000000000000	0.00000000000000	0.00000000000000	0.00000000000000	
23.70160200000000	2.01262200000000	702.13080000000002	35.47096100000000	0.23187600000000	0.00000000000000	0.09139400000000	0.00000000000000	0.00000000000000	0.00000000000000	0.00000000000000	0.00000000000000	0.00000000000000	0.00000000000000	15.12648500000000	0.00000000000000	0.00000000000000	0.00000000000000	0.00000000000000	
23.70324400000000	1.44080600000000	703.57456500000001	35.50020300000000	0.23111800000000	0.00000000000000	0.09139200000000	0.00000000000000	0.00000000000000	0.00000000000000	0.00000000000000	0.00000000000000	0.00000000000000	0.00000000000000	15.22217500000000	0.00000000000000	0.00000000000000	0.00000000000000	0.00000000000000	
23.70490800000000	0.86294200000000	705.06955500000004	35.53115100000000	0.23033400000000	0.00000000000000	0.09139100000000	0.00000000000000	0.00000000000000	0.00000000000000	0.00000000000000	0.00000000000000	0.00000000000000	0.00000000000000	15.31935100000000	0.00000000000000	0.00000000000000	0.00000000000000	0.00000000000000	
23.70660000000000	0.27928300000000	706.61406799999997	35.56372300000000	0.22952200000000	0.00000000000000	0.09139200000000	0.00000000000000	0.00000000000000	0.00000000000000	0.00000000000000	0.00000000000000	0.00000000000000	0.00000000000000	15.41786100000000	0.00000000000000	0.00000000000000	0.00000000000000	0.00000000000000	
23.70824500000000	-0.30989200000000	708.20640600000002	35.59785500000000	0.22868300000000	0.00000000000000	0.09139400000000	0.00000000000000	0.00000000000000	0.00000000000000	0.00000000000000	0.00000000000000	0.00000000000000	0.00000000000000	15.51756300000000	0.00000000000000	0.00000000000000	0.00000000000000	0.00000000000000	
23.70990800000000	-0.90427700000000	709.84486800000002	35.63349900000000	0.22781600000000	0.00000000000000	0.09139700000000	0.00000000000000	0.00000000000000	0.00000000000000	0.00000000000000	0.00000000000000	0.00000000000000	0.00000000000000	15.61832500000000	0.00000000000000	0.00000000000000	0.00000000000000	0.00000000000000	
23.71159100000000	-1.50353900000000	711.52776100000005	35.67061900000000	0.22692300000000	0.00000000000000	0.09140300000000	0.00000000000000	0.00000000000000	0.00000000000000	0.00000000000000	0.00000000000000	0.00000000000000	0.00000000000000	15.72002400000000	0.00000000000000	0.00000000000000	0.00000000000000	0.00000000000000	
23.71324300000000	-2.10732200000000	713.25339599999995	35.70919600000000	0.22600300000000	0.00000000000000	0.09140900000000	0.00000000000000	0.00000000000000	0.00000000000000	0.00000000000000	0.00000000000000	0.00000000000000	0.00000000000000	15.82254500000000	0.00000000000000	0.00000000000000	0.00000000000000	0.00000000000000	
23.71490700000000	-2.71524800000000	715.02008899999998	35.74922200000000	0.22505700000000	0.00000000000000	0.09141700000000	0.00000000000000	0.00000000000000	0.00000000000000	0.00000000000000	0.00000000000000	0.00000000000000	0.00000000000000	15.92578300000000	0.00000000000000	0.00000000000000	0.00000000000000	0.00000000000000	
23.71658800000000	-3.32691600000000	716.82616700000005	35.79070500000000	0.22408500000000	0.00000000000000	0.09142700000000	0.00000000000000	0.00000000000000	0.00000000000000	0.00000000000000	0.00000000000000	0.00000000000000	0.00000000000000	16.02964100000000	0.00000000000000	0.00000000000000	0.00000000000000	0.00000000000000	
23.71824900000000	-3.94190400000000	718.66996200000006	35.83366200000000	0.22309000000000	0.00000000000000	0.09143800000000	0.00000000000000	0.00000000000000	0.00000000000000	0.00000000000000	0.00000000000000	0.00000000000000	0.00000000000000	16.13402800000000	0.00000000000000	0.00000000000000	0.00000000000000	0.00000000000000	
23.71991200000000	-4.55977400000000	720.54981599999996	35.87812500000000	0.22207100000000	0.00000000000000	0.09145000000000	0.00000000000000	0.00000000000000	0.00000000000000	0.00000000000000	0.00000000000000	0.00000000000000	0.00000000000000	16.23886400000000	0.00000000000000	0.00000000000000	0.00000000000000	0.00000000000000	
23.72160200000000	-5.18007000000000	722.46408099999996	35.92413600000000	0.22103100000000	0.00000000000000	0.09146400000000	0.00000000000000	0.00000000000000	0.00000000000000	0.00000000000000	0.00000000000000	0.00000000000000	0.00000000000000	16.34407100000000	0.00000000000000	0.00000000000000	0.00000000000000	0.00000000000000	
23.72324200000000	-5.80232100000000	724.41111599999999	35.97174900000000	0.21997100000000	0.00000000000000	0.09147900000000	0.00000000000000	0.00000000000000	0.00000000000000	0.00000000000000	0.00000000000000	0.00000000000000	0.00000000000000	16.44958100000000	0.00000000000000	0.00000000000000	0.00000000000000	0.00000000000000	
23.72490800000000	-6.42604300000000	726.38929099999996	36.02102800000000	0.21889200000000	0.00000000000000	0.09149500000000	0.00000000000000	0.00000000000000	0.00000000000000	0.00000000000000	0.00000000000000	0.00000000000000	0.00000000000000	16.55533200000000	0.00000000000000	0.00000000000000	0.00000000000000	0.00000000000000	
23.72658800000000	-7.05074300000000	728.39698299999998	36.07204700000000	0.21779500000000	0.00000000000000	0.09151200000000	0.00000000000000	0.00000000000000	0.00000000000000	0.00000000000000	0.00000000000000	0.00000000000000	0.00000000000000	16.66126300000000	0.00000000000000	0.00000000000000	0.00000000000000	0.00000000000000	
23.72824500000000	-7.67591600000000	730.43257800000003	36.12488900000000	0.21668400000000	0.00000000000000	0.09153000000000	0.00000000000000	0.00000000000000	0.00000000000000	0.00000000000000	0.00000000000000	0.00000000000000	0.00000000000000	16.76732400000000	0.00000000000000	0.00000000000000	0.00000000000000	0.00000000000000	
23.72991000000000	-8.30105200000000	732.49446899999998	36.17965000000000	0.21555900000000	0.00000000000000	0.09155000000000	0.00000000000000	0.00000000000000	0.00000000000000	0.00000000000000	0.00000000000000	0.00000000000000	0.00000000000000	16.87346500000000	0.00000000000000	0.00000000000000	0.00000000000000	0.00000000000000	
23.73158300000000	-8.92563800000000	734.58105599999999	36.23643000000000	0.21442200000000	0.00000000000000	0.09157000000000	0.00000000000000	0.00000000000000	0.00000000000000	0.00000000000000	0.00000000000000	0.00000000000000	0.00000000000000	16.97964200000000	0.00000000000000	0.00000000000000	0.00000000000000	0.00000000000000	
23.73324800000000	-9.54915600000000	736.69074300000000	36.29534200000000	0.21327600000000	0.00000000000000	0.09159100000000	0.00000000000000	0.00000000000000	0.00000000000000	0.00000000000000	0.00000000000000	0.00000000000000	0.00000000000000	17.08581400000000	0.00000000000000	0.00000000000000	0.00000000000000	0.00000000000000	
23.73491200000000	-10.17109000000000	738.82194000000004	36.35650300000000	0.21212200000000	0.00000000000000	0.09161300000000	0.00000000000000	0.00000000000000	0.00000000000000	0.00000000000000	0.00000000000000	0.00000000000000	0.00000000000000	17.19194200000000	0.00000000000000	0.00000000000000	0.00000000000000	0.00000000000000	
23.73658900000000	-10.79092300000000	740.97305700000004	36.42004300000000	0.21096300000000	0.00000000000000	0.09163500000000	0.00000000000000	0.00000000000000	0.00000000000000	0.00000000000000	0.00000000000000	0.00000000000000	0.00000000000000	17.29799200000000	0.00000000000000	0.00000000000000	0.00000000000000	0.00000000000000	
23.73824300000000	-11.40814500000000	743.14250900000002	36.48609300000000	0.20980000000000	0.00000000000000	0.09165800000000	0.00000000000000	0.00000000000000	0.00000000000000	0.00000000000000	0.00000000000000	0.00000000000000	0.00000000000000	17.40392900000000	0.00000000000000	0.00000000000000	0.00000000000000	0.00000000000000	
23.73990900000000	-12.02225200000000	745.32870800000001	36.55479800000000	0.20863600000000	0.00000000000000	0.09168100000000	0.00000000000000	0.00000000000000	0.00000000000000	0.00000000000000	0.00000000000000	0.00000000000000	0.00000000000000	17.50972400000000	0.00000000000000	0.00000000000000	0.00000000000000	0.00000000000000	
23.74157400000000	-12.63274700000000	747.53006500000004	36.62630300000000	0.20747200000000	0.00000000000000	0.09170500000000	0.00000000000000	0.00000000000000	0.00000000000000	0.00000000000000	0.00000000000000	0.00000000000000	0.00000000000000	17.61534500000000	0.00000000000000	0.00000000000000	0.00000000000000	0.00000000000000	
23.74324300000000	-13.23914400000000	749.74499000000003	36.70076400000000	0.20631100000000	0.00000000000000	0.09172900000000	0.00000000000000	0.00000000000000	0.00000000000000	0.00000000000000	0.00000000000000	0.00000000000000	0.00000000000000	17.72076500000000	0.00000000000000	0.00000000000000	0.00000000000000	0.00000000000000	
23.74490700000000	-13.84097000000000	751.97188400000005	36.77834000000000	0.20515400000000	0.00000000000000	0.09175400000000	0.00000000000000	0.00000000000000	0.00000000000000	0.00000000000000	0.00000000000000	0.00000000000000	0.00000000000000	17.82595400000000	0.00000000000000	0.00000000000000	0.00000000000000	0.00000000000000	
23.74658300000000	-14.43776600000000	754.20914500000003	36.85919600000000	0.20400300000000	0.00000000000000	0.09177800000000	0.00000000000000	0.00000000000000	0.00000000000000	0.00000000000000	0.00000000000000	0.00000000000000	0.00000000000000	17.93088600000000	0.00000000000000	0.00000000000000	0.00000000000000	0.00000000000000	
23.74824600000000	-15.02908900000000	756.45515999999998	36.94350100000000	0.20286100000000	0.00000000000000	0.09180200000000	0.00000000000000	0.00000000000000	0.00000000000000	0.00000000000000	0.00000000000000	0.00000000000000	0.00000000000000	18.03553200000000	0.00000000000000	0.00000000000000	0.00000000000000	0.00000000000000	
23.74991300000000	-15.61451300000000	758.70830799999999	37.03142800000000	0.20172800000000	0.00000000000000	0.09182700000000	0.00000000000000	0.00000000000000	0.00000000000000	0.00000000000000	0.00000000000000	0.00000000000000	0.00000000000000	18.13986500000000	0.00000000000000	0.00000000000000	0.00000000000000	0.00000000000000	
